<svg width="110" height="50" fill="none" xmlns="http://www.w3.org/2000/svg"><path d="M57.259 14.232h3.769c.9 0 1.697.172 2.388.516a3.86 3.86 0 011.612 1.451c.383.624.575 1.351.575 2.181 0 .83-.192 1.557-.575 2.18a3.86 3.86 0 01-1.612 1.453c-.691.343-1.487.515-2.388.515h-3.769v-8.296zm3.674 6.72c.83 0 1.492-.231 1.985-.693.494-.463.741-1.089.741-1.879s-.247-1.416-.74-1.878c-.494-.463-1.156-.694-1.986-.694H59.18v5.144h1.754zm13.21.036v1.54H67.72v-8.296h6.27v1.54h-4.361v1.802h3.852v1.493h-3.852v1.92h4.515zm9.809-6.756v8.296h-1.576l-4.137-5.037v5.037h-1.896v-8.296h1.588l4.125 5.037v-5.037h1.896zm4.357 1.564h-2.655v-1.564h7.23v1.564h-2.655v6.732h-1.92v-6.732zm11.325 4.954h-3.852l-.734 1.778H93.08l3.698-8.296h1.896l3.71 8.296h-2.015l-.735-1.777zm-.604-1.457l-1.316-3.177-1.315 3.177h2.63zm4.89-5.061h1.92v6.732H110v1.564h-6.08v-8.296zM61.23 35.663c-.814 0-1.547-.182-2.2-.546a4.027 4.027 0 01-1.54-1.505c-.375-.64-.563-1.359-.563-2.157s.188-1.517.563-2.157a4.028 4.028 0 011.54-1.505c.653-.364 1.386-.545 2.2-.545.6 0 1.153.096 1.659.29.505.194.936.48 1.291.86l-.379.39c-.663-.655-1.513-.983-2.548-.983-.695 0-1.327.158-1.896.474a3.469 3.469 0 00-1.34 1.31 3.644 3.644 0 00-.486 1.866c0 .688.163 1.31.486 1.867.324.557.77.993 1.34 1.31a3.839 3.839 0 001.896.473c1.027 0 1.877-.331 2.548-.995l.38.391a3.47 3.47 0 01-1.298.865 4.53 4.53 0 01-1.654.297zm5.586-8.356h.605v7.751h4.776v.545h-5.38v-8.296zm7.543 0h.605v8.296h-.605v-8.296zm10.861 0v8.296h-.498l-5.653-7.206v7.206h-.605v-8.296h.51l5.642 7.206v-7.206h.604zm3.501 0h.605v8.296h-.605v-8.296zm7.614 8.356c-.814 0-1.547-.182-2.199-.546a4.027 4.027 0 01-1.54-1.505c-.376-.64-.563-1.359-.563-2.157s.187-1.517.563-2.157a4.028 4.028 0 011.54-1.505c.652-.364 1.385-.545 2.199-.545.6 0 1.154.096 1.66.29.505.194.935.48 1.291.86l-.38.39c-.663-.655-1.512-.983-2.547-.983a3.84 3.84 0 00-1.897.474 3.469 3.469 0 00-1.339 1.31 3.645 3.645 0 00-.486 1.866c0 .688.162 1.31.486 1.867.324.557.77.993 1.34 1.31a3.839 3.839 0 001.896.473c1.027 0 1.876-.331 2.548-.995l.379.391a3.47 3.47 0 01-1.298.865c-.51.198-1.06.297-1.653.297z" fill="#383B40"/><path d="M2.314 17.42c0 .281.003.566.01.853l.002.022c.034 1.238.15 2.54.335 3.878.341-1.797.928-3.22 1.656-4.323 1.185-1.793 2.742-2.756 4.258-3.11a6.033 6.033 0 011.51-.154c3.857.091 7.915 2.743 11.527 8.062 3.112 4.584 5.936 11.204 8.04 19.928.2.36.392.727.584 1.092.938 1.79 1.86 3.547 3.394 3.531-.008-.001-.013-.002 0-.002h.01c1.259-.082 4.312-2.978 7.19-8.053 2.993-5.282 5.577-12.82 5.443-21.944a47.121 47.121 0 00-.096-2.335c-.273-4.217-2.418-7.042-5.367-8.917.506.85.795 1.725.885 2.579a5.105 5.105 0 01-.669 3.158c-.757 1.283-2.096 2.257-3.906 2.644-5.423 1.16-9.288-.712-13.343-2.675-2.993-1.45-6.099-2.953-9.965-3.133a17.573 17.573 0 00-1.81.007c-3.205.182-5.588 1.293-7.184 2.903-1.574 1.588-2.398 3.677-2.498 5.84l-.006.15zM30.548 2.663a46.831 46.831 0 00-6.09-.356c-3.937.02-8.649.349-12.723 1.809-2.35.842-4.494 2.07-6.147 3.848 1.703-.971 3.797-1.601 6.288-1.742a19.81 19.81 0 012.035-.008c4.35.203 7.67 1.81 10.87 3.36 3.69 1.785 7.207 3.488 11.86 2.494 1.138-.244 1.957-.817 2.395-1.56.3-.508.428-1.11.361-1.746-.071-.68-.366-1.41-.91-2.128-1.269-1.68-3.818-3.224-7.94-3.971zM.019 18.422a12.11 12.11 0 01-.013-1.075c.002-.327.01-.65.022-.967.075-1.772.331-3.395.798-4.788 1.716-5.12 5.598-8.023 10.131-9.647C15.34.375 20.313.022 24.45 0c1.919-.01 4.167.086 6.504.39l.001.001c3.647.476 7.508 1.461 10.671 3.347 3.75 2.236 6.517 5.694 6.86 10.981.05.798.082 1.616.094 2.453.142 9.597-2.584 17.54-5.742 23.11-3.269 5.766-7.204 9.09-9.044 9.22l-.127.003c-2.951.043-4.201-2.34-5.475-4.77-.975-1.86-1.97-3.757-3.726-3.78-1.833-.024-2.912 2.051-3.926 4.001-1.227 2.362-2.384 4.588-4.939 4.48a5.305 5.305 0 01-1.467-.278c-3.638-1.22-7.332-6.576-10.01-13.084C1.8 30.436.188 23.873.02 18.422zM5.66 33.68c.193.512.392 1.019.598 1.518 2.447 5.944 5.649 10.78 8.608 11.772.283.095.56.15.826.161 1.087.045 1.916-1.55 2.795-3.24 1.33-2.56 2.746-5.285 6.006-5.242.692.01 1.296.14 1.83.363-1.87-6.43-4.154-11.44-6.62-15.07-3.161-4.657-6.558-6.976-9.671-7.05a3.73 3.73 0 00-.931.1c-.996.233-2.035.891-2.856 2.133C5.35 20.48 4.719 22.5 4.65 25.38c-.053 2.237.237 4.976 1.008 8.3zm27.97 13.519h.009-.009zm.01 0c.014 0 .008 0 0 0z" fill="url(#paint0_linear)"/><defs><linearGradient id="paint0_linear" x1="16.251" y1="48.112" x2="32.334" y2="1.394" gradientUnits="userSpaceOnUse"><stop stop-color="#36A0EB"/><stop offset="1" stop-color="#1CFFD9"/></linearGradient></defs></svg>